Coordinates
version=1
nRows=4
nColumns=63
inDegrees=yes

Units are S.I. units (second, meters, Newtons, ...)
If the header above contains a line with 'inDegrees', this indicates whether rotational values are in degrees (yes) or radians (no).

endheader
time	pelvis_tilt	pelvis_list	pelvis_rotation	pelvis_tx	pelvis_ty	pelvis_tz	hip_flexion_r	hip_adduction_r	hip_rotation_r	knee_angle_r	knee_angle_r_beta	ankle_angle_r	subtalar_angle_r	mtp_angle_r	hip_flexion_l	hip_adduction_l	hip_rotation_l	knee_angle_l	knee_angle_l_beta	ankle_angle_l	subtalar_angle_l	mtp_angle_l	L5_S1_Flex_Ext	L5_S1_Lat_Bending	L5_S1_axial_rotation	L4_L5_Flex_Ext	L4_L5_Lat_Bending	L4_L5_axial_rotation	L3_L4_Flex_Ext	L3_L4_Lat_Bending	L3_L4_axial_rotation	L2_L3_Flex_Ext	L2_L3_Lat_Bending	L2_L3_axial_rotation	L1_L2_Flex_Ext	L1_L2_Lat_Bending	L1_L2_axial_rotation	L1_T12_Flex_Ext	L1_T12_Lat_Bending	L1_T12_axial_rotation	Abs_r3	Abs_r2	Abs_r1	Abs_t1	Abs_t2	neck_flexion	neck_bending	neck_rotation	arm_flex_r	arm_add_r	arm_rot_r	elbow_flex_r	pro_sup_r	wrist_flex_r	wrist_dev_r	arm_flex_l	arm_add_l	arm_rot_l	elbow_flex_l	pro_sup_l	wrist_flex_l	wrist_dev_l
      0.00000000	      3.23364611	     -4.44594191	     93.06400247	      0.11509585	      1.15642285	      0.32639503	     -0.52496052	      0.25215837	    -12.54643497	     11.32320901	      0.19762728	     28.06368628	      7.64346572	      0.00000000	     -0.33644741	     -2.23714206	      8.59076534	     10.40941210	      0.18167851	     33.09417562	      5.53244063	      0.00000000	     -0.04215468	      0.11892072	      0.58096517	     -0.07828545	      0.15816456	      0.61727549	     -0.06925592	      0.28914384	      0.61727549	     -0.04817858	      0.28914384	      0.50834452	     -0.03914483	      0.24250313	      0.47203420	     -0.02408718	      0.18420819	      0.43572388	     -0.30110664	      1.34525495	      3.23115397	      0.00000000	      0.00000000	     23.69308711	     -6.78170547	    -10.86658411	     52.98448386	    -21.73206307	     57.99355455	     64.81195885	     89.64598370	     -8.96416078	    -22.09695396	     49.80667079	     -6.05973835	     50.87679805	     55.11157920	     35.27093256	     -6.40485758	     30.30709923
      0.01666667	      3.01471616	     -4.10858874	     91.93444128	      0.11652550	      1.15801393	      0.32626869	     -0.56348437	      0.01057452	    -10.93094255	     11.35684232	      0.19821429	     28.94834894	      6.76882208	      0.00000000	     -0.98498458	     -1.91476405	      9.37333288	      9.69529390	      0.16921480	     33.29624851	      3.88143169	      0.00000000	     -0.07239311	      0.10566222	      0.78718848	     -0.13444125	      0.14053076	      0.83638776	     -0.11893465	      0.25690713	      0.83638776	     -0.08273809	      0.25690713	      0.68878992	     -0.06722425	      0.21546640	      0.63959064	     -0.04136543	      0.16367078	      0.59039136	     -0.51709678	      1.19527219	      4.37810617	      0.00000000	      0.00000000	     22.75005468	     -6.87727219	    -10.38921077	     50.70749523	    -21.68304766	     56.09147850	     65.56735182	     89.63276336	     -6.42582417	    -21.87747816	     49.50453101	     -8.96643949	     54.98958018	     59.07899005	     41.43984248	     -5.90049572	     26.48487992
      0.03333333	      2.76226220	     -3.95071470	     91.06780415	      0.11788590	      1.15894574	      0.32551667	     -0.52978822	     -0.23459922	     -9.47524400	     11.38448083	      0.19869667	     29.62435357	      5.91997612	      0.00000000	     -1.43298328	     -1.58445088	     10.12075283	      9.12166313	      0.15920305	     33.29254439	      2.40043999	      0.00000000	     -0.07083040	      0.07744020	      1.05035591	     -0.13153914	      0.10299547	      1.11600316	     -0.11636727	      0.18828811	      1.11600316	     -0.08095207	      0.18828811	      0.91906142	     -0.06577311	      0.15791607	      0.85341418	     -0.04047249	      0.11995488	      0.78776693	     -0.50593449	      0.87601909	      5.84176448	      0.00000000	      0.00000000	     22.05937727	     -7.11580513	    -10.86010077	     47.22404089	    -21.39600458	     50.64898645	     66.60408031	     89.58824599	      0.38797624	    -16.52089864	     49.48498244	    -10.67205154	     59.19821800	     61.07850828	     43.02174933	     -7.41257275	     20.02140906
      0.05000000	      2.49407873	     -3.86239373	     90.38079430	      0.11919449	      1.15946177	      0.32430833	     -0.49868438	     -0.49605531	     -8.40541577	     11.45497470	      0.19992702	     30.19776690	      5.41411762	      0.00000000	     -1.81078493	     -1.27135701	     10.70075128	      8.65007092	      0.15097222	     33.14650145	      1.19095315	      0.00000000	     -0.05795567	      0.04549169	      1.36793203	     -0.10762947	      0.06050394	      1.45342778	     -0.09521537	      0.11060849	      1.45342778	     -0.06623753	      0.11060849	      1.19694053	     -0.05381763	      0.09276665	      1.11144478	     -0.03311587	      0.07046662	      1.02594902	     -0.41397154	      0.51461107	      7.60802758	      0.00000000	      0.00000000	     21.60995452	     -7.64475332	    -11.87701986	     43.03383001	    -20.46549533	     42.56432402	     68.01814541	     89.46597798	      8.93239267	     -5.48415849	     49.45437610	    -11.15654975	     63.15324740	     61.29908219	     37.76466174	     -9.35558124	     11.61142387
